G04 Layer_Physical_Order=1*
G04 Layer_Color=255*
%FSLAX25Y25*%
%MOIN*%
%TF.FileFunction,Copper,L1,Top,Signal*%
%TF.Part,Single*%
G01*
G75*
%TA.AperFunction,SMDPad*%
%ADD10R,0.07480X0.05906*%
%TA.AperFunction,SMDPad*%
%ADD11R,0.02362X0.05709*%
%TA.AperFunction,SMDPad*%
%ADD12R,0.05906X0.07480*%
%TA.AperFunction,SMDPad*%
%ADD13R,0.04331X0.04724*%
%TA.AperFunction,SMDPad*%
%ADD14O,0.02165X0.06496*%
%TA.AperFunction,SMDPad*%
%ADD15O,0.06496X0.02165*%
%TA.AperFunction,SMDPad*%
%ADD16R,0.05906X0.05512*%
%TA.AperFunction,SMDPad*%
%ADD17O,0.02756X0.09843*%
%TA.AperFunction,SMDPad*%
%ADD18R,0.05118X0.05906*%
%TA.AperFunction,SMDPad*%
%ADD19R,0.06299X0.05906*%
%TA.AperFunction,SMDPad*%
%ADD20O,0.09843X0.02756*%
%TA.AperFunction,SMDPad*%
%ADD21R,0.17716X0.13780*%
%TA.AperFunction,SMDPad*%
%ADD22R,0.09449X0.10236*%
%TA.AperFunction,SMDPad*%
%ADD23R,0.05906X0.06299*%
%TA.AperFunction,SMDPad*%
%ADD24R,0.05512X0.05906*%
%TA.AperFunction,SMDPad*%
%ADD25R,0.26378X0.22441*%
%TA.AperFunction,SMDPad*%
%ADD26R,0.09843X0.03937*%
%TA.AperFunction,SMDPad*%
%ADD27R,0.04724X0.04331*%
%ADD28C,0.01969*%
%ADD29C,0.01181*%
%ADD30C,0.03937*%
%ADD31C,0.05906*%
%TA.AperFunction,ViaPad*%
%ADD32C,0.06299*%
%TA.AperFunction,ViaPad*%
%ADD33R,0.06299X0.06299*%
%TA.AperFunction,ConnectorPad*%
%ADD34C,0.06299*%
%TA.AperFunction,ConnectorPad*%
%ADD35C,0.11811*%
%TA.AperFunction,ViaPad*%
%ADD36R,0.07874X0.07874*%
%TA.AperFunction,ViaPad*%
%ADD37C,0.07874*%
%TA.AperFunction,ConnectorPad*%
%ADD38C,0.07874*%
%TA.AperFunction,ViaPad*%
%ADD39C,0.05512*%
%TA.AperFunction,ViaPad*%
%ADD40C,0.05906*%
D10*
X142717Y124803D02*
D03*
Y137008D02*
D03*
D11*
X356299Y169587D02*
D03*
X352559Y178839D02*
D03*
X360039D02*
D03*
X322835Y169587D02*
D03*
X319094Y178839D02*
D03*
X326575D02*
D03*
X192913Y169587D02*
D03*
X189173Y178839D02*
D03*
X196653D02*
D03*
X171260Y169587D02*
D03*
X167520Y178839D02*
D03*
X175000D02*
D03*
X225394Y169587D02*
D03*
X221654Y178839D02*
D03*
X229134D02*
D03*
D12*
X329528Y190945D02*
D03*
X341732D02*
D03*
X254921Y182087D02*
D03*
X267126D02*
D03*
D13*
X409449Y95472D02*
D03*
X417323D02*
D03*
D14*
X241929Y117323D02*
D03*
X245079D02*
D03*
X248228D02*
D03*
X251378D02*
D03*
X254528D02*
D03*
X257677D02*
D03*
X260827D02*
D03*
X263976D02*
D03*
Y150394D02*
D03*
X260827D02*
D03*
X257677D02*
D03*
X254528D02*
D03*
X251378D02*
D03*
X248228D02*
D03*
X245079D02*
D03*
X241929D02*
D03*
D15*
X269488Y122835D02*
D03*
Y125984D02*
D03*
Y129134D02*
D03*
Y132283D02*
D03*
Y135433D02*
D03*
Y138583D02*
D03*
Y141732D02*
D03*
Y144882D02*
D03*
X236417D02*
D03*
Y141732D02*
D03*
Y138583D02*
D03*
Y135433D02*
D03*
Y132283D02*
D03*
Y129134D02*
D03*
Y125984D02*
D03*
Y122835D02*
D03*
D16*
X310039Y195866D02*
D03*
Y187992D02*
D03*
X117323Y132283D02*
D03*
Y140157D02*
D03*
X126378Y132283D02*
D03*
Y140157D02*
D03*
X216535Y98425D02*
D03*
Y90551D02*
D03*
X378937Y171260D02*
D03*
Y179134D02*
D03*
Y152559D02*
D03*
Y160433D02*
D03*
X263779Y100394D02*
D03*
Y92520D02*
D03*
X272638Y100394D02*
D03*
Y92520D02*
D03*
D17*
X111594Y102559D02*
D03*
X116595D02*
D03*
X121595D02*
D03*
X126594D02*
D03*
X111594Y121850D02*
D03*
X116595D02*
D03*
X121595D02*
D03*
X126594D02*
D03*
D18*
X103543Y113583D02*
D03*
Y121063D02*
D03*
D19*
X409449Y131693D02*
D03*
Y124213D02*
D03*
X400591Y85827D02*
D03*
Y93307D02*
D03*
D20*
X402756Y117736D02*
D03*
Y112736D02*
D03*
Y107736D02*
D03*
Y102736D02*
D03*
X422047Y117736D02*
D03*
Y112736D02*
D03*
Y107736D02*
D03*
Y102736D02*
D03*
D21*
X406496Y179134D02*
D03*
Y143701D02*
D03*
D22*
X437992Y118898D02*
D03*
Y93701D02*
D03*
Y164567D02*
D03*
Y189764D02*
D03*
D23*
X421063Y86614D02*
D03*
X413583D02*
D03*
X259646Y161024D02*
D03*
X252165D02*
D03*
D24*
X421260Y77756D02*
D03*
X413386D02*
D03*
X281496Y112205D02*
D03*
X289370D02*
D03*
X293307Y127953D02*
D03*
X301181D02*
D03*
X333661Y155512D02*
D03*
X341535D02*
D03*
X293307Y141732D02*
D03*
X301181D02*
D03*
X281496Y120079D02*
D03*
X289370D02*
D03*
D25*
X309842Y90551D02*
D03*
D26*
X336221Y99606D02*
D03*
Y81496D02*
D03*
D27*
X281496Y89567D02*
D03*
Y81693D02*
D03*
D28*
X110827Y168898D02*
Y182283D01*
X223425Y191929D02*
X229134Y186221D01*
X209646Y191929D02*
X223425D01*
X110827Y168898D02*
X142717Y137008D01*
X129528Y113779D02*
X132874Y117126D01*
X125591Y113779D02*
X129528D01*
X132874Y117126D02*
Y125000D01*
X248228Y111024D02*
Y117323D01*
Y111024D02*
X248425Y111221D01*
X228740Y91535D02*
X248228Y111024D01*
X129921Y91535D02*
X228740D01*
X260925Y190945D02*
Y196752D01*
Y150492D02*
Y190945D01*
X266732D01*
X260827Y196850D02*
X324606D01*
X205709D02*
X260827D01*
X260925Y196752D01*
X257677Y136614D02*
X260827Y139764D01*
Y150394D01*
X149606Y123031D02*
Y128740D01*
Y123031D02*
X155512Y117126D01*
X149606Y133858D02*
X155512Y139764D01*
X174213D01*
X183071Y130905D01*
X205709Y127559D02*
X213583Y135433D01*
X172244Y117126D02*
X182677Y127559D01*
X155512Y117126D02*
X172244D01*
X182677Y127559D02*
X205709D01*
X170079Y97441D02*
X228346D01*
X142717Y124803D02*
X170079Y97441D01*
X132874Y125000D02*
X135827Y127953D01*
X126594Y132067D02*
X126772Y131890D01*
X126378Y132283D02*
X126594Y132067D01*
X126772Y131890D02*
X135827D01*
X383858Y137795D02*
X384842D01*
X341535D02*
X383858D01*
X338583Y134843D02*
X341535Y137795D01*
X301181Y134843D02*
X338583D01*
X200787Y191929D02*
X205709Y196850D01*
X310039Y181102D02*
Y187992D01*
X303150Y174213D02*
X310039Y181102D01*
X270669Y174213D02*
X303150D01*
X244094Y185039D02*
X251969D01*
X254921Y182087D01*
X269488Y156299D02*
X276574Y163385D01*
X269488Y144882D02*
Y156299D01*
X260827Y150394D02*
X260925Y150492D01*
X266929Y177953D02*
Y183071D01*
Y177953D02*
X270669Y174213D01*
X265748Y157480D02*
Y170276D01*
X310039Y174213D02*
X312992D01*
X306102Y170276D02*
X310039Y174213D01*
X341535Y169291D02*
X341535Y169291D01*
Y155512D02*
Y169291D01*
X285433Y159449D02*
X321850D01*
X335630Y173228D01*
X329766Y204724D02*
X334667Y199824D01*
X195866Y204724D02*
X329766D01*
X200984Y103612D02*
Y121260D01*
X228346Y97441D02*
X241929Y111024D01*
X126594Y102559D02*
Y108051D01*
Y94862D02*
Y102559D01*
Y94862D02*
X129921Y91535D01*
X188976Y197835D02*
X195866Y204724D01*
X201772Y201772D02*
X328543D01*
X197835Y197835D02*
X201772Y201772D01*
X172244Y191929D02*
X200787D01*
X103543Y121063D02*
Y143898D01*
X99606Y147835D02*
X103543Y143898D01*
X99606Y147835D02*
Y193110D01*
X106299Y199803D01*
X164370D01*
X172244Y191929D01*
X179133Y75787D02*
X267717D01*
X272638Y80708D02*
Y85630D01*
X267717Y75787D02*
X272638Y80708D01*
X179133Y75787D02*
X179133Y75787D01*
X112795Y75787D02*
X179133D01*
X98228Y90354D02*
X112795Y75787D01*
X328543Y201772D02*
X332677Y197638D01*
X229134Y178839D02*
Y186221D01*
X239173Y182087D02*
X242126Y185039D01*
X239173Y160433D02*
Y182087D01*
X236221Y157480D02*
X239173Y160433D01*
X188976Y186024D02*
X221457D01*
X221654Y185827D01*
Y178839D02*
Y185827D01*
X229134Y154724D02*
X233465Y150394D01*
X229134Y154724D02*
Y178839D01*
X216535Y165354D02*
X224410D01*
X225394Y166339D01*
Y169587D01*
X214567Y167323D02*
Y181102D01*
Y167323D02*
X216535Y165354D01*
X203740Y159449D02*
Y181102D01*
Y159449D02*
X218307Y144882D01*
X183071Y130905D02*
X203937D01*
X187008Y150591D02*
X198819D01*
X196850Y181102D02*
X203740D01*
X196653Y178839D02*
Y180905D01*
X196850Y181102D01*
X175000Y180905D02*
X175197Y181102D01*
X175000Y178839D02*
Y180905D01*
X175197Y181102D02*
X182087D01*
X187008Y162402D02*
X191929D01*
X192913Y163386D01*
Y169587D01*
X185039Y156496D02*
X200787D01*
X215551Y141732D01*
X182087Y159449D02*
X185039Y156496D01*
X182087Y159449D02*
Y181102D01*
X167323Y179035D02*
X167520Y178839D01*
X167323Y179035D02*
Y186024D01*
X215551Y141732D02*
X236417D01*
X171260Y149153D02*
Y169587D01*
X167057Y144951D02*
X171260Y149153D01*
X188976Y179035D02*
Y186024D01*
X167323D02*
X188976D01*
X241929Y111024D02*
Y117323D01*
X233465Y150394D02*
X241929D01*
X242126Y185039D02*
X244094D01*
X218307Y144882D02*
X236417D01*
X229331Y132283D02*
X236417D01*
X225984Y128937D02*
X229331Y132283D01*
X225394Y128937D02*
X225984D01*
X324606Y196850D02*
X330512Y190945D01*
X356299Y169587D02*
X356594Y169291D01*
X368110D01*
X318898Y164370D02*
X322835Y168307D01*
X313976Y164370D02*
X318898D01*
Y179035D02*
Y187992D01*
Y179035D02*
X319094Y178839D01*
X352362Y179035D02*
Y187992D01*
X283465Y170276D02*
X306102D01*
X277559Y164370D02*
X283465Y170276D01*
X285433Y159449D02*
Y164370D01*
Y152798D02*
Y159449D01*
X274367Y141732D02*
X285433Y152798D01*
X269488Y141732D02*
X274367D01*
X372047Y148622D02*
X375000Y145669D01*
X372047Y148622D02*
Y163386D01*
X375000Y145669D02*
X383858D01*
X372047Y163386D02*
X374508Y165847D01*
X277165Y135433D02*
X283465Y141732D01*
X293307D01*
X292323Y155512D02*
X331693D01*
X275394Y138583D02*
X292323Y155512D01*
X296260Y150591D02*
X301181D01*
X309055D01*
X284449Y134843D02*
X301181D01*
Y127953D02*
Y134843D01*
Y142717D02*
Y150591D01*
X282480Y127953D02*
X293307D01*
X278150Y132283D02*
X282480Y127953D01*
X383858Y145669D02*
X402756Y126772D01*
X378937Y179134D02*
Y195866D01*
X322835Y168307D02*
Y169587D01*
X348425Y111221D02*
X363189D01*
X343406Y106201D02*
X348425Y111221D01*
X295177Y106201D02*
X343406D01*
X245079Y168405D02*
X251969Y161516D01*
X251476Y150394D02*
Y161024D01*
X245079Y168405D02*
Y180118D01*
X251476Y161024D02*
X251969Y161516D01*
X402756Y117736D02*
Y126772D01*
X383858Y136811D02*
X384842Y137795D01*
X104331Y152559D02*
X116142D01*
X297244Y112205D02*
X309055D01*
X297244Y120079D02*
X309055D01*
X95669Y114961D02*
Y118110D01*
X103543Y112402D02*
X103740D01*
X95669Y114961D02*
X97047Y113583D01*
X103543D01*
X102756Y103150D02*
X110236Y110630D01*
X77559Y103150D02*
X102756D01*
X110236Y110630D02*
X119685D01*
X121595Y108721D01*
X110807Y121063D02*
X111594Y121850D01*
X103543Y121063D02*
X110807D01*
X103740Y113779D02*
X120866D01*
X126594Y108051D01*
X121595Y102559D02*
Y108721D01*
Y117776D02*
X125591Y113779D01*
X121595Y117776D02*
Y121850D01*
X118504Y81496D02*
Y90158D01*
X116595Y92067D02*
X118504Y90158D01*
X116595Y92067D02*
Y102559D01*
X111433Y88567D02*
X111594Y88729D01*
Y102559D01*
X117323Y140157D02*
X126378D01*
X113386D02*
X117323D01*
X111594Y138366D02*
X113386Y140157D01*
X111594Y121850D02*
Y138366D01*
X117323Y132283D02*
X121595Y128012D01*
Y121850D02*
Y128012D01*
X126594Y121850D02*
Y132067D01*
X406496Y143701D02*
X407480D01*
X416339Y134843D01*
Y122047D02*
Y134843D01*
X406496Y143701D02*
X409449Y140748D01*
Y131693D02*
Y140748D01*
X422047Y117736D02*
X437008D01*
X179133Y75787D02*
Y85630D01*
X179134D01*
X422047Y107736D02*
X428681D01*
X437992Y98425D01*
X374508Y165847D02*
X378937D01*
Y160433D02*
Y165847D01*
Y171260D01*
X248228Y117323D02*
Y132087D01*
X251378Y135236D01*
Y150394D01*
Y117323D02*
Y130315D01*
X254528Y111221D02*
Y117323D01*
X257677D02*
Y136614D01*
X251378Y130315D02*
X257677Y136614D01*
X269488Y135433D02*
X277165D01*
X269488Y138583D02*
X275394D01*
X269488Y132283D02*
X278150D01*
X289370Y112205D02*
X297244D01*
X289370Y120079D02*
X297244D01*
X269488Y129134D02*
X277123D01*
X269488Y125984D02*
X274606D01*
X275590Y125000D01*
Y113189D02*
Y125000D01*
Y113189D02*
X276575Y112205D01*
X281496D01*
X251378Y150394D02*
X251476D01*
X248425Y111221D02*
X254528D01*
X257677Y117323D02*
X257677Y117323D01*
X213583Y135433D02*
X236417D01*
X187008Y137795D02*
X198819D01*
X203937Y130905D02*
X211614Y138583D01*
X236417D01*
X263976Y150394D02*
Y155709D01*
X188976Y179035D02*
X189173Y178839D01*
X385827Y86614D02*
Y120079D01*
X437992Y95472D02*
Y98425D01*
X417323Y95472D02*
X426181D01*
X400591Y93307D02*
Y102362D01*
Y77756D02*
Y85827D01*
X421063Y77953D02*
Y86614D01*
Y77953D02*
X421260Y77756D01*
X405512D02*
X413386D01*
X280273Y121302D02*
X281496Y120079D01*
X280273Y121302D02*
Y125984D01*
X277123Y129134D02*
X280273Y125984D01*
X263779Y80709D02*
Y92520D01*
X272638Y85630D02*
Y92520D01*
Y85630D02*
X276575D01*
X281496Y81693D02*
X287402Y75787D01*
X269488Y113386D02*
Y122835D01*
Y113386D02*
X281496Y101378D01*
Y89567D02*
Y101378D01*
X272638Y100394D02*
Y104331D01*
X263976Y112992D02*
X272638Y104331D01*
X263976Y112992D02*
Y117323D01*
X263779Y100394D02*
Y107382D01*
X260827Y110335D02*
X263779Y107382D01*
X260827Y110335D02*
Y117323D01*
X286417Y85630D02*
X289370Y88583D01*
Y100394D02*
X295177Y106201D01*
X289370Y88583D02*
Y100394D01*
X287402Y75787D02*
X330709D01*
X336417Y81496D01*
X340158D01*
X263976Y155709D02*
X265748Y157480D01*
D29*
X148622Y129724D02*
X149606Y128740D01*
X135827Y131890D02*
X147638D01*
X149606Y133858D01*
X135827Y127953D02*
X137598Y129724D01*
X148622D01*
X312992Y174213D02*
X325787D01*
X335630Y173228D02*
X336614Y174213D01*
X359252D01*
X334449Y185827D02*
Y195866D01*
X332677Y184055D02*
X334449Y185827D01*
X332677Y197638D02*
X334449Y195866D01*
X336614Y174213D02*
Y197877D01*
X334667Y199824D02*
X336614Y197877D01*
X360039Y175000D02*
Y178839D01*
X359252Y174213D02*
X360039Y175000D01*
X327756Y184055D02*
X332677D01*
X326575Y182874D02*
X327756Y184055D01*
X326575Y178839D02*
Y182874D01*
X325787Y174213D02*
X326575Y175000D01*
Y178839D01*
X415354Y121063D02*
X416339Y122047D01*
X402756Y107736D02*
X407028D01*
X418705Y102736D02*
X422047D01*
X409449Y119095D02*
Y124213D01*
X400591Y102362D02*
X400965Y102736D01*
X402756D01*
X409902Y112736D02*
X410992Y111646D01*
X409449Y95472D02*
Y105315D01*
X407028Y107736D02*
X409449Y105315D01*
X410992Y107364D02*
Y111646D01*
X402756Y112736D02*
X409902D01*
X416791D02*
X422047D01*
X415354Y114173D02*
X416791Y112736D01*
X415354Y114173D02*
Y121063D01*
X409449Y119095D02*
X413173Y115370D01*
Y108268D02*
Y115370D01*
X410992Y107364D02*
X413386Y104971D01*
X413173Y108268D02*
X418705Y102736D01*
X413386Y86811D02*
X413583Y86614D01*
X413386Y86811D02*
Y104971D01*
X276575Y85630D02*
X286417D01*
D30*
X346654Y195866D02*
X378937D01*
X341732Y190945D02*
X346654Y195866D01*
X388779Y164370D02*
X388976Y164567D01*
X437992D01*
X378937Y152559D02*
X384842D01*
X388779Y156496D02*
Y164370D01*
X384842Y152559D02*
X388779Y156496D01*
Y164370D02*
Y187992D01*
X431890Y195866D02*
X437992Y189764D01*
X378937Y195866D02*
X431890D01*
X336221Y99606D02*
X339370D01*
X345472Y93504D01*
Y79724D02*
Y93504D01*
Y79724D02*
X347441Y77756D01*
X352362D01*
D31*
X437992Y139764D02*
Y164567D01*
X452756Y108465D02*
Y118110D01*
X437992Y118898D02*
Y139764D01*
X427362Y179134D02*
X437992Y189764D01*
X406496Y179134D02*
X427362D01*
X437992Y93701D02*
X452756Y108465D01*
X426181Y95472D02*
X437992D01*
X400591Y77756D02*
X405512D01*
X352362D02*
X352362Y77756D01*
X400591D01*
X309842Y90551D02*
X331693D01*
D32*
X297402Y191024D02*
D03*
Y181024D02*
D03*
X277402Y191024D02*
D03*
X287402Y181024D02*
D03*
Y191024D02*
D03*
X118504Y81496D02*
D03*
X111433Y88567D02*
D03*
X95669Y127953D02*
D03*
X77559Y143110D02*
D03*
Y112795D02*
D03*
X160827Y191929D02*
D03*
X150827D02*
D03*
X140827D02*
D03*
X130827D02*
D03*
X120827D02*
D03*
D33*
X277402Y181024D02*
D03*
X110827Y191929D02*
D03*
D34*
X425197Y127953D02*
D03*
X86614D02*
D03*
D35*
X350394D02*
D03*
X161417D02*
D03*
D36*
X452756Y129842D02*
D03*
X354331Y91457D02*
D03*
D37*
X452756Y139842D02*
D03*
X354331Y101457D02*
D03*
D38*
X452756Y94488D02*
D03*
Y153543D02*
D03*
X59055D02*
D03*
Y94488D02*
D03*
D39*
X110630Y182283D02*
D03*
X209646Y191929D02*
D03*
X338583Y134843D02*
D03*
X310039Y181102D02*
D03*
X266732Y190945D02*
D03*
X265748Y170276D02*
D03*
X200984Y121260D02*
D03*
Y103612D02*
D03*
X188976Y197835D02*
D03*
X197835D02*
D03*
X98228Y90354D02*
D03*
X221457Y186024D02*
D03*
X214567Y181102D02*
D03*
Y165354D02*
D03*
X385827Y120079D02*
D03*
X187008Y150591D02*
D03*
X198819D02*
D03*
X203740Y181102D02*
D03*
X187008Y162402D02*
D03*
X182087Y181102D02*
D03*
X167057Y144951D02*
D03*
X236221Y157480D02*
D03*
X225394Y128937D02*
D03*
X368110Y169291D02*
D03*
X341535D02*
D03*
X313976Y164370D02*
D03*
X318898Y187992D02*
D03*
X352362D02*
D03*
X388779D02*
D03*
X277559Y164370D02*
D03*
X285433D02*
D03*
X296260Y150591D02*
D03*
X309055D02*
D03*
X245079Y180118D02*
D03*
X198819Y137795D02*
D03*
X383858D02*
D03*
X116142Y152559D02*
D03*
X104331D02*
D03*
X297244Y120079D02*
D03*
Y112205D02*
D03*
X309055D02*
D03*
Y120079D02*
D03*
X95669Y118110D02*
D03*
X77559Y103150D02*
D03*
X179134Y85630D02*
D03*
X187008Y137795D02*
D03*
X95472Y135827D02*
D03*
X363189Y111221D02*
D03*
X386024Y103612D02*
D03*
X385827Y86614D02*
D03*
X272638Y85630D02*
D03*
X263779Y80709D02*
D03*
X284449Y134843D02*
D03*
D40*
X452756Y118110D02*
D03*
X437992Y139764D02*
D03*
X426181Y95472D02*
D03*
X405512Y77756D02*
D03*
X331693Y90551D02*
D03*
%TF.MD5,9764F58749022A582D1106158769A816*%
M02*
