G04 Layer_Physical_Order=2*
G04 Layer_Color=16711680*
%FSLAX25Y25*%
%MOIN*%
%TF.FileFunction,Copper,L2,Bot,Signal*%
%TF.Part,Single*%
G01*
G75*
%TA.AperFunction,SMDPad*%
%ADD10R,0.07480X0.05906*%
%TA.AperFunction,SMDPad*%
%ADD11R,0.05118X0.05906*%
%TA.AperFunction,SMDPad*%
G04:AMPARAMS|DCode=12|XSize=59.06mil|YSize=51.18mil|CornerRadius=0mil|HoleSize=0mil|Usage=FLASHONLY|Rotation=191.000|XOffset=0mil|YOffset=0mil|HoleType=Round|Shape=Rectangle|*
%AMROTATEDRECTD12*
4,1,4,0.02410,0.03076,0.03387,-0.01949,-0.02410,-0.03076,-0.03387,0.01949,0.02410,0.03076,0.0*
%
%ADD12ROTATEDRECTD12*%

%TA.AperFunction,SMDPad*%
%ADD13R,0.05906X0.05118*%
%ADD14C,0.01969*%
%ADD15C,0.01181*%
%ADD16C,0.05906*%
%ADD17C,0.01000*%
%ADD18C,0.03937*%
%TA.AperFunction,ViaPad*%
%ADD19C,0.07874*%
%TA.AperFunction,ViaPad*%
%ADD20R,0.07874X0.07874*%
%TA.AperFunction,ViaPad*%
%ADD21C,0.06299*%
%TA.AperFunction,ViaPad*%
%ADD22R,0.06299X0.06299*%
%TA.AperFunction,ConnectorPad*%
%ADD23C,0.07874*%
%TA.AperFunction,ConnectorPad*%
%ADD24C,0.11811*%
%TA.AperFunction,ConnectorPad*%
%ADD25C,0.06299*%
%TA.AperFunction,ViaPad*%
%ADD26C,0.05512*%
%TA.AperFunction,ViaPad*%
%ADD27C,0.05906*%
D10*
X250000Y122835D02*
D03*
Y135039D02*
D03*
D11*
X133661Y86614D02*
D03*
X126181D02*
D03*
X117913Y169291D02*
D03*
X110433D02*
D03*
X125787Y127953D02*
D03*
X118307D02*
D03*
X216339Y86614D02*
D03*
X208858D02*
D03*
X200590Y169291D02*
D03*
X193110D02*
D03*
X318701Y86614D02*
D03*
X311221D02*
D03*
X303937Y169291D02*
D03*
X296457D02*
D03*
X310827Y127953D02*
D03*
X303346D02*
D03*
X401378Y86614D02*
D03*
X393898D02*
D03*
X385630Y169291D02*
D03*
X378150D02*
D03*
X393504Y127953D02*
D03*
X386024D02*
D03*
X208465D02*
D03*
X200984D02*
D03*
D12*
X146924Y110955D02*
D03*
X148351Y103612D02*
D03*
X139050Y152294D02*
D03*
X140477Y144951D02*
D03*
X95743Y152294D02*
D03*
X97170Y144951D02*
D03*
X103617Y110955D02*
D03*
X105044Y103612D02*
D03*
X229601Y110955D02*
D03*
X231029Y103612D02*
D03*
X221727Y152294D02*
D03*
X223155Y144951D02*
D03*
X178420Y152294D02*
D03*
X179848Y144951D02*
D03*
X186294Y110955D02*
D03*
X187722Y103612D02*
D03*
X331963Y110955D02*
D03*
X333391Y103612D02*
D03*
X324090Y152294D02*
D03*
X325517Y144951D02*
D03*
X280782Y152294D02*
D03*
X282210Y144951D02*
D03*
X288656Y110955D02*
D03*
X290084Y103612D02*
D03*
X406767Y152294D02*
D03*
X408194Y144951D02*
D03*
X363460Y152294D02*
D03*
X364887Y144951D02*
D03*
X414641Y110955D02*
D03*
X416068Y103612D02*
D03*
X371334Y110955D02*
D03*
X372761Y103612D02*
D03*
D13*
X259842Y103543D02*
D03*
Y111024D02*
D03*
X425197Y173031D02*
D03*
Y165551D02*
D03*
X86614Y145472D02*
D03*
Y137992D02*
D03*
Y90354D02*
D03*
Y82874D02*
D03*
X425197Y117913D02*
D03*
Y110433D02*
D03*
X249606Y157677D02*
D03*
Y165157D02*
D03*
D14*
X255118D02*
X275590Y144685D01*
X259842Y111024D02*
Y112992D01*
X250000Y122835D02*
X259842Y112992D01*
X270472Y135039D02*
X276575Y128937D01*
X250000Y135039D02*
X270472D01*
X276575Y128937D02*
X287402D01*
X432087Y92520D02*
Y116142D01*
X426378Y117913D02*
X430315D01*
X432087Y116142D01*
X401378Y86614D02*
X426181D01*
X432087Y92520D01*
X418307Y119095D02*
X419602Y117799D01*
X418307Y119095D02*
Y132874D01*
X287402Y128937D02*
X290354Y131890D01*
Y136811D01*
X287402Y139764D02*
X290354Y136811D01*
X277559Y139764D02*
X287402D01*
X275590Y141732D02*
X277559Y139764D01*
X275590Y141732D02*
Y144685D01*
X276772Y134843D02*
X284449D01*
X249606Y157677D02*
X253937D01*
X276772Y134843D01*
X249606Y165157D02*
X255118D01*
X263779Y80709D02*
X399409D01*
X216535D02*
X263779D01*
X272638Y98425D02*
X285168Y110955D01*
X272638Y85630D02*
Y98425D01*
X401378Y82677D02*
Y86614D01*
X399409Y80709D02*
X401378Y82677D01*
X385827Y86614D02*
X393898D01*
X371068Y111221D02*
X371334Y110955D01*
X363189Y111221D02*
X371068D01*
X372761Y103612D02*
X386024D01*
X95472Y135827D02*
X95669Y135630D01*
Y127953D02*
Y135630D01*
X125787Y127374D02*
X135838Y117323D01*
X125787Y127374D02*
Y127953D01*
X171265Y159449D02*
X178420Y152294D01*
X123031Y159449D02*
X171265D01*
X116142Y152559D02*
X123031Y159449D01*
X175197Y137795D02*
X187008D01*
X110433Y144951D02*
Y169291D01*
X118307Y103612D02*
X148351D01*
X110433Y144951D02*
X140477D01*
X133661Y86614D02*
X139567Y80709D01*
X216339Y80905D02*
Y86614D01*
X139567Y80709D02*
X216535D01*
X318701Y80905D02*
Y86614D01*
X118307Y103612D02*
Y127953D01*
Y94488D02*
X126181Y86614D01*
X118307Y94488D02*
Y103612D01*
X105044D02*
X118307D01*
X97170Y144951D02*
X110433D01*
Y135827D02*
Y144951D01*
X200984Y103612D02*
X231029D01*
X290084D02*
X303346D01*
Y94488D02*
Y103612D01*
Y94488D02*
X311221Y86614D01*
X303346Y103612D02*
X333391D01*
X378150Y144951D02*
Y169291D01*
Y135827D02*
Y144951D01*
X364887D02*
X378150D01*
Y135827D02*
X386024Y127953D01*
Y103612D02*
X416068D01*
X100128Y110955D02*
X103617D01*
X285168D02*
X288656D01*
X179848Y144951D02*
X193110D01*
X187722Y103612D02*
X200984D01*
Y94488D02*
Y103612D01*
Y94488D02*
X208858Y86614D01*
X182805Y110955D02*
X186294D01*
X179134Y85630D02*
Y107283D01*
X182805Y110955D01*
X303346Y103612D02*
Y127953D01*
X98425Y109252D02*
X100128Y110955D01*
X86614Y148819D02*
X90089Y152294D01*
X95743D01*
X86614Y145472D02*
Y148819D01*
X77559Y112795D02*
Y143110D01*
X110433Y135827D02*
X118307Y127953D01*
X95669Y118110D02*
Y127953D01*
X77559Y103150D02*
Y112795D01*
X82677Y100394D02*
Y116884D01*
X81496Y132874D02*
X86614Y137992D01*
X81496Y118065D02*
Y132874D01*
Y118065D02*
X82677Y116884D01*
X123819Y175197D02*
X200394D01*
X117913Y169291D02*
X123819Y175197D01*
X200394Y169488D02*
Y175197D01*
Y169488D02*
X200590Y169291D01*
X385630D02*
Y175000D01*
X303937Y169444D02*
Y175153D01*
X356304Y159449D02*
X363460Y152294D01*
X284449Y117126D02*
X292323D01*
X297244Y112205D01*
X375000Y117126D02*
X381890Y110236D01*
X193110Y169291D02*
X193179Y169222D01*
X193110Y144951D02*
X193179Y145020D01*
X96009Y152559D02*
X104331D01*
X309055Y120079D02*
X310827Y121850D01*
Y127953D01*
X229601Y110955D02*
X242392D01*
X249803Y103543D01*
X270866D02*
X284449Y117126D01*
X259842Y103543D02*
X270866D01*
X249803D02*
X259842D01*
X309055Y112205D02*
X330714D01*
X331963Y110955D01*
X324090Y152294D02*
X332677D01*
X383858Y137795D02*
X412402D01*
X406767Y152294D02*
X415354D01*
Y140748D02*
Y152294D01*
X412402Y137795D02*
X415354Y140748D01*
X378150Y144951D02*
X408194D01*
X193179Y135758D02*
X200984Y127953D01*
Y132087D01*
X213848Y144951D01*
X223155D01*
X198819Y137795D02*
X213317Y152294D01*
X221727D01*
X244094Y128740D02*
X270866D01*
X425197Y139764D02*
Y165551D01*
X418307Y132874D02*
X425197Y139764D01*
X437992D02*
Y139842D01*
X385630Y175000D02*
X405709D01*
X407677Y173031D02*
X425197D01*
X245079Y180118D02*
Y185039D01*
X295472Y162402D02*
Y169291D01*
X80709Y82874D02*
X86614D01*
X69882Y93701D02*
X80709Y82874D01*
X98228Y90354D02*
X98425Y90158D01*
X86614Y90354D02*
X98228D01*
X293307Y175153D02*
X303937D01*
X290158Y172003D02*
X293307Y175153D01*
X303346Y127953D02*
Y144754D01*
X303150Y144951D02*
X303346Y144754D01*
X303150Y144951D02*
X325517D01*
X309055Y150591D02*
X317913Y159449D01*
X356304D01*
X303150Y144951D02*
Y162402D01*
X295472D02*
X303150D01*
X282210Y144951D02*
X303150D01*
X287402Y152294D02*
X289105Y150591D01*
X280782Y152294D02*
X287402D01*
X289105Y150591D02*
X296260D01*
X425197Y165551D02*
X430315D01*
X431693Y166929D01*
Y178543D01*
X277559Y164370D02*
Y179882D01*
X277402Y180039D02*
X277559Y179882D01*
X290158Y161221D02*
Y172003D01*
X270163Y158465D02*
X287402D01*
X290158Y161221D01*
X289606Y198819D02*
X297402Y191024D01*
X258858Y198819D02*
X289606D01*
X297402Y191024D02*
X300433Y187992D01*
X306102D01*
X303150Y162402D02*
X312008D01*
X313976Y164370D01*
X368110Y169291D02*
X378150D01*
X407480Y202756D02*
X431693Y178543D01*
X225394Y128937D02*
X231299Y134843D01*
X231299Y134843D02*
X231299Y134843D01*
X249016Y158267D02*
X249606Y157677D01*
X244094Y158267D02*
X249016D01*
X231299Y134843D02*
X236221Y139765D01*
Y157480D01*
X231639Y162205D02*
X240157D01*
X221727Y152294D02*
X231639Y162205D01*
X240157D02*
X244094Y158267D01*
X249410Y165354D02*
X249606Y165157D01*
X214567Y165354D02*
X249410D01*
X139050Y152294D02*
X168573D01*
X172244Y148622D01*
Y140748D02*
Y148622D01*
Y140748D02*
X175197Y137795D01*
X140477Y144951D02*
X167057D01*
X150591Y117323D02*
X153740Y114173D01*
X135838Y117323D02*
X150591D01*
X146924Y110955D02*
X175916D01*
X153740Y114173D02*
X174958D01*
X175916Y110955D02*
X182087Y117126D01*
X189961D01*
X174958Y114173D02*
X180864Y120079D01*
X331963Y110955D02*
X333213Y112205D01*
X355315D01*
X360236Y117126D01*
X375000D01*
X353346Y115157D02*
X358268Y120079D01*
X338583Y115157D02*
X353346D01*
X333661Y120079D02*
X338583Y115157D01*
X309055Y120079D02*
X333661D01*
X187008Y162402D02*
X193179D01*
Y169222D01*
X198819Y150591D02*
Y157480D01*
X178420Y152294D02*
X185305D01*
X187008Y150591D01*
X193179Y145020D02*
Y162402D01*
Y135758D02*
Y145020D01*
X386024Y120276D02*
Y127953D01*
X385827Y120079D02*
X386024Y120276D01*
X358268Y120079D02*
X377953D01*
X382874Y115157D01*
X389764D01*
X393504Y118898D01*
Y127953D01*
X381890Y110236D02*
X413922D01*
X414641Y110955D01*
X198819Y157480D02*
X211614Y170276D01*
X245079Y185039D02*
X246063Y186024D01*
X258858Y198819D01*
X221457Y186024D02*
X246063D01*
X214567Y202756D02*
X407480D01*
X214567Y180118D02*
Y181102D01*
Y202756D01*
X120827Y191929D02*
Y193898D01*
X130827Y191929D02*
Y193898D01*
X140827Y191929D02*
Y193898D01*
X98425Y90158D02*
Y109252D01*
X191929Y191929D02*
X197835Y197835D01*
X160827Y191929D02*
X191929D01*
X151575D02*
X157480Y197835D01*
X150827Y191929D02*
X151575D01*
X157480Y197835D02*
X188976D01*
X140827Y191929D02*
X147716Y185039D01*
X130827Y191929D02*
X140669Y182087D01*
X120827Y191929D02*
X133622Y179134D01*
X189961Y117126D02*
X196850Y110236D01*
X228883D01*
X229601Y110955D01*
X180864Y120079D02*
X191929D01*
X235433D02*
X244094Y128740D01*
X191929Y120079D02*
X195866Y116142D01*
X200984Y121260D02*
Y127953D01*
X208465Y120079D02*
Y127953D01*
Y120079D02*
X235433D01*
X195866Y116142D02*
X204527D01*
X208465Y120079D01*
X303937Y169291D02*
X341535D01*
X254176Y170276D02*
X272158Y152294D01*
X211614Y170276D02*
X254176D01*
X272158Y152294D02*
X280782D01*
X253430Y175197D02*
X270163Y158465D01*
X200394Y175197D02*
X253430D01*
X266811Y191024D02*
X277402D01*
X266732Y190945D02*
X266811Y191024D01*
X309961Y181024D02*
X310039Y181102D01*
X297402Y181024D02*
X309961D01*
X332677Y152294D02*
X338583Y146388D01*
Y134843D02*
Y146388D01*
X69882Y163386D02*
X109252Y202756D01*
X214567D01*
X69882Y93701D02*
Y163386D01*
X279528Y120079D02*
X297244D01*
X270866Y128740D02*
X279528Y120079D01*
X405556Y175153D02*
X405709Y175000D01*
X407677Y173031D01*
X341535Y169291D02*
X347397Y175153D01*
X405556D01*
X80709Y98425D02*
X82677Y100394D01*
X80709Y82874D02*
Y98425D01*
X199016Y185827D02*
X203740Y181102D01*
X209646Y190945D02*
Y191929D01*
X206693Y188976D02*
X209646Y191929D01*
X168307Y188976D02*
X206693D01*
X164370Y185039D02*
X168307Y188976D01*
X147716Y185039D02*
X164370D01*
X170079Y185827D02*
X199016D01*
X166339Y182087D02*
X170079Y185827D01*
X140669Y182087D02*
X166339D01*
X168307Y179134D02*
X170276Y181102D01*
X182087D01*
X133622Y179134D02*
X168307D01*
X110827Y182480D02*
Y191929D01*
X110630Y182283D02*
X110827Y182480D01*
D15*
X419602Y112878D02*
Y117799D01*
Y112878D02*
X422047Y110433D01*
X425197D01*
Y117913D02*
X426378D01*
X216339Y80905D02*
X216535Y80709D01*
X265748Y182087D02*
X269685Y186024D01*
X284370D01*
X287402Y182992D01*
X285433Y171260D02*
X292323Y178150D01*
X285433Y164370D02*
Y171260D01*
X287402Y189961D02*
Y191024D01*
Y189961D02*
X292323Y185039D01*
Y178150D02*
Y185039D01*
X265748Y170276D02*
Y182087D01*
D16*
X331693Y90551D02*
X334646D01*
X345551Y101457D01*
X354331D01*
X358268Y91457D02*
X374921D01*
X378937Y95472D02*
X426181D01*
X374921Y91457D02*
X378937Y95472D01*
X437992Y87598D02*
Y139764D01*
X428150Y77756D02*
X437992Y87598D01*
X405512Y77756D02*
X428150D01*
X452756Y118110D02*
Y129842D01*
X437992Y139842D02*
X452756D01*
D17*
X303937Y169291D02*
Y169444D01*
D18*
X318898Y187992D02*
X388779D01*
X306102D02*
X318898D01*
D19*
X354331Y101457D02*
D03*
X452756Y139842D02*
D03*
D20*
X354331Y91457D02*
D03*
X452756Y129842D02*
D03*
D21*
X120827Y191929D02*
D03*
X130827D02*
D03*
X140827D02*
D03*
X150827D02*
D03*
X160827D02*
D03*
X77559Y112795D02*
D03*
Y143110D02*
D03*
X95669Y127953D02*
D03*
X111433Y88567D02*
D03*
X118504Y81496D02*
D03*
X287402Y191024D02*
D03*
Y181024D02*
D03*
X277402Y191024D02*
D03*
X297402Y181024D02*
D03*
Y191024D02*
D03*
D22*
X110827Y191929D02*
D03*
X277402Y181024D02*
D03*
D23*
X59055Y94488D02*
D03*
Y153543D02*
D03*
X452756D02*
D03*
Y94488D02*
D03*
D24*
X161417Y127953D02*
D03*
X350394D02*
D03*
D25*
X86614D02*
D03*
X425197D02*
D03*
D26*
X284449Y134843D02*
D03*
X263779Y80709D02*
D03*
X272638Y85630D02*
D03*
X385827Y86614D02*
D03*
X386024Y103612D02*
D03*
X363189Y111221D02*
D03*
X95472Y135827D02*
D03*
X187008Y137795D02*
D03*
X179134Y85630D02*
D03*
X77559Y103150D02*
D03*
X95669Y118110D02*
D03*
X309055Y120079D02*
D03*
Y112205D02*
D03*
X297244D02*
D03*
Y120079D02*
D03*
X104331Y152559D02*
D03*
X116142D02*
D03*
X383858Y137795D02*
D03*
X198819D02*
D03*
X245079Y180118D02*
D03*
X309055Y150591D02*
D03*
X296260D02*
D03*
X285433Y164370D02*
D03*
X277559D02*
D03*
X388779Y187992D02*
D03*
X352362D02*
D03*
X318898D02*
D03*
X313976Y164370D02*
D03*
X341535Y169291D02*
D03*
X368110D02*
D03*
X225394Y128937D02*
D03*
X236221Y157480D02*
D03*
X167057Y144951D02*
D03*
X182087Y181102D02*
D03*
X187008Y162402D02*
D03*
X203740Y181102D02*
D03*
X198819Y150591D02*
D03*
X187008D02*
D03*
X385827Y120079D02*
D03*
X214567Y165354D02*
D03*
Y181102D02*
D03*
X221457Y186024D02*
D03*
X98228Y90354D02*
D03*
X197835Y197835D02*
D03*
X188976D02*
D03*
X200984Y103612D02*
D03*
Y121260D02*
D03*
X265748Y170276D02*
D03*
X266732Y190945D02*
D03*
X310039Y181102D02*
D03*
X338583Y134843D02*
D03*
X209646Y191929D02*
D03*
X110630Y182283D02*
D03*
D27*
X331693Y90551D02*
D03*
X405512Y77756D02*
D03*
X426181Y95472D02*
D03*
X437992Y139764D02*
D03*
X452756Y118110D02*
D03*
%TF.MD5,B2DC9145CB2074ECEEC64434FD9AB8E7*%
M02*
