G04 Layer_Physical_Order=1*
G04 Layer_Color=255*
%FSLAX44Y44*%
%MOMM*%
G71*
G01*
G75*
%ADD10C,0.1000*%
%ADD11C,0.5000*%
%ADD12C,0.4000*%
%ADD13C,0.3000*%
%ADD14C,0.2000*%
%ADD15C,0.2540*%
%ADD16R,96.4000X13.8000*%
%ADD17C,1.6000*%
D10*
X1510000Y804000D02*
X560000D01*
X1510000Y802000D02*
X560000D01*
X1510000Y798000D02*
X560000D01*
X1510000Y800000D02*
X560000D01*
D11*
X1510000Y690000D02*
X560000D01*
X1510000Y700000D02*
X560000D01*
X1510000Y720000D02*
X560000D01*
X1510000Y712000D02*
X560000D01*
X1560000Y850000D02*
X500000D01*
X1560000Y500000D02*
Y850000D01*
X500000Y500000D02*
Y850000D01*
X1560000Y500000D02*
X500000D01*
D12*
X1510000Y733000D02*
X560000D01*
X1510000Y740000D02*
X560000D01*
X1510000Y758000D02*
X560000D01*
X1510000Y752000D02*
X560000D01*
D13*
X1510000Y766000D02*
X560000D01*
X1510000Y772000D02*
X560000D01*
X1510000Y785000D02*
X560000D01*
X1510000Y780000D02*
X560000D01*
D14*
X1510000Y791000D02*
X560000D01*
X1510000Y795000D02*
X560000D01*
D15*
X1580000Y870000D02*
X480000D01*
Y480000D02*
Y870000D01*
X1580000Y480000D02*
X480000D01*
X1580000D02*
Y870000D01*
D16*
X1028000Y595000D02*
D03*
D17*
X1543000Y664000D02*
D03*
X1135000Y830000D02*
D03*
X1082000Y827000D02*
D03*
M02*
